<svg xmlns="http://www.w3.org/2000/svg" viewBox="0 0 400 240">
  <!-- Background -->
  <rect width="400" height="240" fill="#f5f5f5" rx="5" ry="5"/>
  
  <!-- Title -->
  <text x="200" y="30" font-family="Arial, sans-serif" font-size="18" text-anchor="middle" font-weight="bold">DMUX (Demultiplexer) Implementation</text>
  
  <!-- NOT Gate -->
  <path d="M140,140 L140,120 L170,140 L140,160 Z" stroke="black" fill="#ffe6e6" stroke-width="2"/>
  <circle cx="180" cy="140" r="10" stroke="black" fill="white" stroke-width="2"/>
  <text x="155" y="145" font-family="Arial, sans-serif" font-size="14" text-anchor="middle">NOT</text>
  
  <!-- AND Gates -->
  <path d="M270,90 L270,60 L310,60 A30,30 0 0 1 310,120 L270,120 Z" stroke="black" fill="#e6fffa" stroke-width="2"/>
  <text x="290" y="95" font-family="Arial, sans-serif" font-size="14" text-anchor="middle">AND</text>
  
  <path d="M270,190 L270,160 L310,160 A30,30 0 0 1 310,220 L270,220 Z" stroke="black" fill="#e6fffa" stroke-width="2"/>
  <text x="290" y="195" font-family="Arial, sans-serif" font-size="14" text-anchor="middle">AND</text>
  
  <!-- Input wires -->
  <line x1="50" y1="80" x2="240" y2="80" stroke="black" stroke-width="2"/>
  <line x1="240" y1="80" x2="240" y2="90" stroke="black" stroke-width="2"/>
  <line x1="240" y1="90" x2="270" y2="90" stroke="black" stroke-width="2"/>
  
  <line x1="240" y1="80" x2="240" y2="190" stroke="black" stroke-width="2"/>
  <line x1="240" y1="190" x2="270" y2="190" stroke="black" stroke-width="2"/>
  
  <line x1="50" y1="140" x2="140" y2="140" stroke="black" stroke-width="2"/>
  
  <!-- Connecting wires from NOT gate -->
  <line x1="190" y1="140" x2="220" y2="140" stroke="black" stroke-width="2"/>
  <line x1="220" y1="140" x2="220" y2="110" stroke="black" stroke-width="2"/>
  <line x1="220" y1="110" x2="270" y2="110" stroke="black" stroke-width="2"/>
  
  <!-- Connecting wires from sel to bottom AND gate -->
  <line x1="100" y1="140" x2="100" y2="210" stroke="black" stroke-width="2"/>
  <line x1="100" y1="210" x2="270" y2="210" stroke="black" stroke-width="2"/>
  
  <!-- Output wires -->
  <line x1="310" y1="90" x2="350" y2="90" stroke="black" stroke-width="2"/>
  <line x1="310" y1="190" x2="350" y2="190" stroke="black" stroke-width="2"/>
  
  <!-- Input and Output Labels -->
  <text x="70" y="76" font-family="Arial, sans-serif" font-size="12" text-anchor="middle">in</text>
  <text x="70" y="136" font-family="Arial, sans-serif" font-size="12" text-anchor="middle">sel</text>
  <text x="340" y="86" font-family="Arial, sans-serif" font-size="12" text-anchor="middle">a</text>
  <text x="340" y="186" font-family="Arial, sans-serif" font-size="12" text-anchor="middle">b</text>
  <text x="200" y="136" font-family="Arial, sans-serif" font-size="12" text-anchor="middle">notSel</text>
  
  <!-- Boolean equations -->
  <text x="200" y="250" font-family="Arial, sans-serif" font-size="14" text-anchor="middle" display="none">DMUX(in,sel) = {a,b} where a = (in AND NOT(sel)), b = (in AND sel)</text>
  <text x="150" y="240" font-family="Arial, sans-serif" font-size="14" text-anchor="middle">a = (in AND NOT(sel))</text>
  <text x="250" y="240" font-family="Arial, sans-serif" font-size="14" text-anchor="middle">b = (in AND sel)</text>
</svg>