<svg xmlns="http://www.w3.org/2000/svg" viewBox="0 0 600 400">
  <!-- Background -->
  <rect width="600" height="400" fill="#f5f5f5" rx="5" ry="5"/>
  
  <!-- Title -->
  <text x="300" y="30" font-family="Arial, sans-serif" font-size="18" text-anchor="middle" font-weight="bold">Mux8Way16 Implementation</text>
  
  <!-- First level Mux16 gates -->
  <rect x="180" y="60" width="80" height="40" rx="5" ry="5" fill="#e6f7ff" stroke="black" stroke-width="2"/>
  <text x="220" y="85" font-family="Arial, sans-serif" font-size="12" text-anchor="middle">Mux16</text>
  
  <rect x="180" y="120" width="80" height="40" rx="5" ry="5" fill="#e6f7ff" stroke="black" stroke-width="2"/>
  <text x="220" y="145" font-family="Arial, sans-serif" font-size="12" text-anchor="middle">Mux16</text>
  
  <rect x="180" y="180" width="80" height="40" rx="5" ry="5" fill="#e6f7ff" stroke="black" stroke-width="2"/>
  <text x="220" y="205" font-family="Arial, sans-serif" font-size="12" text-anchor="middle">Mux16</text>
  
  <rect x="180" y="240" width="80" height="40" rx="5" ry="5" fill="#e6f7ff" stroke="black" stroke-width="2"/>
  <text x="220" y="265" font-family="Arial, sans-serif" font-size="12" text-anchor="middle">Mux16</text>
  
  <!-- Second level Mux16 gates -->
  <rect x="320" y="90" width="80" height="40" rx="5" ry="5" fill="#e6f7ff" stroke="black" stroke-width="2"/>
  <text x="360" y="115" font-family="Arial, sans-serif" font-size="12" text-anchor="middle">Mux16</text>
  
  <rect x="320" y="210" width="80" height="40" rx="5" ry="5" fill="#e6f7ff" stroke="black" stroke-width="2"/>
  <text x="360" y="235" font-family="Arial, sans-serif" font-size="12" text-anchor="middle">Mux16</text>
  
  <!-- Third level Mux16 gate -->
  <rect x="460" y="150" width="80" height="40" rx="5" ry="5" fill="#e6f7ff" stroke="black" stroke-width="2"/>
  <text x="500" y="175" font-family="Arial, sans-serif" font-size="12" text-anchor="middle">Mux16</text>
  
  <!-- Input labels -->
  <text x="70" y="65" font-family="Arial, sans-serif" font-size="10" text-anchor="middle">a[16]</text>
  <line x1="90" y1="65" x2="180" y2="65" stroke="black" stroke-width="2"/>
  
  <text x="70" y="95" font-family="Arial, sans-serif" font-size="10" text-anchor="middle">b[16]</text>
  <line x1="90" y1="95" x2="180" y2="95" stroke="black" stroke-width="2"/>
  
  <text x="70" y="125" font-family="Arial, sans-serif" font-size="10" text-anchor="middle">c[16]</text>
  <line x1="90" y1="125" x2="180" y2="125" stroke="black" stroke-width="2"/>
  
  <text x="70" y="155" font-family="Arial, sans-serif" font-size="10" text-anchor="middle">d[16]</text>
  <line x1="90" y1="155" x2="180" y2="155" stroke="black" stroke-width="2"/>
  
  <text x="70" y="185" font-family="Arial, sans-serif" font-size="10" text-anchor="middle">e[16]</text>
  <line x1="90" y1="185" x2="180" y2="185" stroke="black" stroke-width="2"/>
  
  <text x="70" y="215" font-family="Arial, sans-serif" font-size="10" text-anchor="middle">f[16]</text>
  <line x1="90" y1="215" x2="180" y2="215" stroke="black" stroke-width="2"/>
  
  <text x="70" y="245" font-family="Arial, sans-serif" font-size="10" text-anchor="middle">g[16]</text>
  <line x1="90" y1="245" x2="180" y2="245" stroke="black" stroke-width="2"/>
  
  <text x="70" y="275" font-family="Arial, sans-serif" font-size="10" text-anchor="middle">h[16]</text>
  <line x1="90" y1="275" x2="180" y2="275" stroke="black" stroke-width="2"/>
  
  <!-- Selector wires -->
  <text x="130" y="320" font-family="Arial, sans-serif" font-size="10" text-anchor="middle">sel[0]</text>
  <line x1="130" y1="300" x2="130" y2="80" stroke="black" stroke-width="1"/>
  <line x1="130" y1="80" x2="180" y2="80" stroke="black" stroke-width="1"/>
  <line x1="130" y1="140" x2="180" y2="140" stroke="black" stroke-width="1"/>
  <line x1="130" y1="200" x2="180" y2="200" stroke="black" stroke-width="1"/>
  <line x1="130" y1="260" x2="180" y2="260" stroke="black" stroke-width="1"/>
  
  <text x="280" y="320" font-family="Arial, sans-serif" font-size="10" text-anchor="middle">sel[1]</text>
  <line x1="280" y1="300" x2="280" y2="110" stroke="black" stroke-width="1"/>
  <line x1="280" y1="110" x2="320" y2="110" stroke="black" stroke-width="1"/>
  <line x1="280" y1="230" x2="320" y2="230" stroke="black" stroke-width="1"/>
  
  <text x="430" y="320" font-family="Arial, sans-serif" font-size="10" text-anchor="middle">sel[2]</text>
  <line x1="430" y1="300" x2="430" y2="170" stroke="black" stroke-width="1"/>
  <line x1="430" y1="170" x2="460" y2="170" stroke="black" stroke-width="1"/>
  
  <!-- Connecting wires -->
  <line x1="260" y1="80" x2="290" y2="80" stroke="black" stroke-width="2"/>
  <line x1="290" y1="80" x2="290" y2="95" stroke="black" stroke-width="2"/>
  <line x1="290" y1="95" x2="320" y2="95" stroke="black" stroke-width="2"/>
  <text x="275" y="80" font-family="Arial, sans-serif" font-size="10" text-anchor="middle">w1</text>
  
  <line x1="260" y1="140" x2="290" y2="140" stroke="black" stroke-width="2"/>
  <line x1="290" y1="140" x2="290" y2="125" stroke="black" stroke-width="2"/>
  <line x1="290" y1="125" x2="320" y2="125" stroke="black" stroke-width="2"/>
  <text x="275" y="140" font-family="Arial, sans-serif" font-size="10" text-anchor="middle">w2</text>
  
  <line x1="260" y1="200" x2="290" y2="200" stroke="black" stroke-width="2"/>
  <line x1="290" y1="200" x2="290" y2="215" stroke="black" stroke-width="2"/>
  <line x1="290" y1="215" x2="320" y2="215" stroke="black" stroke-width="2"/>
  <text x="275" y="200" font-family="Arial, sans-serif" font-size="10" text-anchor="middle">w3</text>
  
  <line x1="260" y1="260" x2="290" y2="260" stroke="black" stroke-width="2"/>
  <line x1="290" y1="260" x2="290" y2="245" stroke="black" stroke-width="2"/>
  <line x1="290" y1="245" x2="320" y2="245" stroke="black" stroke-width="2"/>
  <text x="275" y="260" font-family="Arial, sans-serif" font-size="10" text-anchor="middle">w4</text>
  
  <line x1="400" y1="110" x2="430" y2="110" stroke="black" stroke-width="2"/>
  <line x1="430" y1="110" x2="430" y2="155" stroke="black" stroke-width="2"/>
  <line x1="430" y1="155" x2="460" y2="155" stroke="black" stroke-width="2"/>
  <text x="415" y="110" font-family="Arial, sans-serif" font-size="10" text-anchor="middle">x1</text>
  
  <line x1="400" y1="230" x2="430" y2="230" stroke="black" stroke-width="2"/>
  <line x1="430" y1="230" x2="430" y2="185" stroke="black" stroke-width="2"/>
  <line x1="430" y1="185" x2="460" y2="185" stroke="black" stroke-width="2"/>
  <text x="415" y="230" font-family="Arial, sans-serif" font-size="10" text-anchor="middle">x2</text>
  
  <!-- Output wire -->
  <line x1="540" y1="170" x2="570" y2="170" stroke="black" stroke-width="2"/>
  <text x="560" y="190" font-family="Arial, sans-serif" font-size="12" text-anchor="middle">out[16]</text>
  
  <!-- Selector logic explanation -->
  <text x="300" y="350" font-family="Arial, sans-serif" font-size="12" text-anchor="middle">out = a if sel = 000, b if sel = 001, c if sel = 010, d if sel = 011,</text>
  <text x="300" y="370" font-family="Arial, sans-serif" font-size="12" text-anchor="middle">e if sel = 100, f if sel = 101, g if sel = 110, h if sel = 111</text>
</svg>