<svg xmlns="http://www.w3.org/2000/svg" viewBox="0 0 500 350">
  <!-- Background -->
  <rect width="500" height="350" fill="#f5f5f5" rx="5" ry="5"/>
  
  <!-- Title -->
  <text x="250" y="30" font-family="Arial, sans-serif" font-size="18" text-anchor="middle" font-weight="bold">Or8Way Implementation</text>
  
  <!-- First level OR gates -->
  <path d="M180,70 Q180,50 190,50 L210,50 Q220,50 220,70 Q220,90 210,90 L190,90 Q180,90 180,70 Z" stroke="black" fill="#fff2e6" stroke-width="2"/>
  <text x="200" y="75" font-family="Arial, sans-serif" font-size="12" text-anchor="middle">OR</text>
  
  <path d="M180,130 Q180,110 190,110 L210,110 Q220,110 220,130 Q220,150 210,150 L190,150 Q180,150 180,130 Z" stroke="black" fill="#fff2e6" stroke-width="2"/>
  <text x="200" y="135" font-family="Arial, sans-serif" font-size="12" text-anchor="middle">OR</text>
  
  <path d="M180,190 Q180,170 190,170 L210,170 Q220,170 220,190 Q220,210 210,210 L190,210 Q180,210 180,190 Z" stroke="black" fill="#fff2e6" stroke-width="2"/>
  <text x="200" y="195" font-family="Arial, sans-serif" font-size="12" text-anchor="middle">OR</text>
  
  <path d="M180,250 Q180,230 190,230 L210,230 Q220,230 220,250 Q220,270 210,270 L190,270 Q180,270 180,250 Z" stroke="black" fill="#fff2e6" stroke-width="2"/>
  <text x="200" y="255" font-family="Arial, sans-serif" font-size="12" text-anchor="middle">OR</text>
  
  <!-- Second level OR gates -->
  <path d="M310,100 Q310,80 320,80 L340,80 Q350,80 350,100 Q350,120 340,120 L320,120 Q310,120 310,100 Z" stroke="black" fill="#fff2e6" stroke-width="2"/>
  <text x="330" y="105" font-family="Arial, sans-serif" font-size="12" text-anchor="middle">OR</text>
  
  <path d="M310,220 Q310,200 320,200 L340,200 Q350,200 350,220 Q350,240 340,240 L320,240 Q310,240 310,220 Z" stroke="black" fill="#fff2e6" stroke-width="2"/>
  <text x="330" y="225" font-family="Arial, sans-serif" font-size="12" text-anchor="middle">OR</text>
  
  <!-- Final OR gate -->
  <path d="M430,160 Q430,140 440,140 L460,140 Q470,140 470,160 Q470,180 460,180 L440,180 Q430,180 430,160 Z" stroke="black" fill="#fff2e6" stroke-width="2"/>
  <text x="450" y="165" font-family="Arial, sans-serif" font-size="12" text-anchor="middle">OR</text>
  
  <!-- Input wires -->
  <line x1="80" y1="60" x2="180" y2="60" stroke="black" stroke-width="2"/>
  <text x="100" y="55" font-family="Arial, sans-serif" font-size="10" text-anchor="middle">in[0]</text>
  
  <line x1="80" y1="80" x2="180" y2="80" stroke="black" stroke-width="2"/>
  <text x="100" y="75" font-family="Arial, sans-serif" font-size="10" text-anchor="middle">in[1]</text>
  
  <line x1="80" y1="120" x2="180" y2="120" stroke="black" stroke-width="2"/>
  <text x="100" y="115" font-family="Arial, sans-serif" font-size="10" text-anchor="middle">in[2]</text>
  
  <line x1="80" y1="140" x2="180" y2="140" stroke="black" stroke-width="2"/>
  <text x="100" y="135" font-family="Arial, sans-serif" font-size="10" text-anchor="middle">in[3]</text>
  
  <line x1="80" y1="180" x2="180" y2="180" stroke="black" stroke-width="2"/>
  <text x="100" y="175" font-family="Arial, sans-serif" font-size="10" text-anchor="middle">in[4]</text>
  
  <line x1="80" y1="200" x2="180" y2="200" stroke="black" stroke-width="2"/>
  <text x="100" y="195" font-family="Arial, sans-serif" font-size="10" text-anchor="middle">in[5]</text>
  
  <line x1="80" y1="240" x2="180" y2="240" stroke="black" stroke-width="2"/>
  <text x="100" y="235" font-family="Arial, sans-serif" font-size="10" text-anchor="middle">in[6]</text>
  
  <line x1="80" y1="260" x2="180" y2="260" stroke="black" stroke-width="2"/>
  <text x="100" y="255" font-family="Arial, sans-serif" font-size="10" text-anchor="middle">in[7]</text>
  
  <!-- Connecting wires -->
  <line x1="220" y1="70" x2="265" y2="70" stroke="black" stroke-width="2"/>
  <line x1="265" y1="70" x2="265" y2="90" stroke="black" stroke-width="2"/>
  <line x1="265" y1="90" x2="310" y2="90" stroke="black" stroke-width="2"/>
  <text x="240" y="70" font-family="Arial, sans-serif" font-size="10" text-anchor="middle">w1</text>
  
  <line x1="220" y1="130" x2="265" y2="130" stroke="black" stroke-width="2"/>
  <line x1="265" y1="130" x2="265" y2="110" stroke="black" stroke-width="2"/>
  <line x1="265" y1="110" x2="310" y2="110" stroke="black" stroke-width="2"/>
  <text x="240" y="130" font-family="Arial, sans-serif" font-size="10" text-anchor="middle">w2</text>
  
  <line x1="220" y1="190" x2="265" y2="190" stroke="black" stroke-width="2"/>
  <line x1="265" y1="190" x2="265" y2="210" stroke="black" stroke-width="2"/>
  <line x1="265" y1="210" x2="310" y2="210" stroke="black" stroke-width="2"/>
  <text x="240" y="190" font-family="Arial, sans-serif" font-size="10" text-anchor="middle">w3</text>
  
  <line x1="220" y1="250" x2="265" y2="250" stroke="black" stroke-width="2"/>
  <line x1="265" y1="250" x2="265" y2="230" stroke="black" stroke-width="2"/>
  <line x1="265" y1="230" x2="310" y2="230" stroke="black" stroke-width="2"/>
  <text x="240" y="250" font-family="Arial, sans-serif" font-size="10" text-anchor="middle">w4</text>
  
  <line x1="350" y1="100" x2="390" y2="100" stroke="black" stroke-width="2"/>
  <line x1="390" y1="100" x2="390" y2="150" stroke="black" stroke-width="2"/>
  <line x1="390" y1="150" x2="430" y2="150" stroke="black" stroke-width="2"/>
  <text x="370" y="100" font-family="Arial, sans-serif" font-size="10" text-anchor="middle">x1</text>
  
  <line x1="350" y1="220" x2="390" y2="220" stroke="black" stroke-width="2"/>
  <line x1="390" y1="220" x2="390" y2="170" stroke="black" stroke-width="2"/>
  <line x1="390" y1="170" x2="430" y2="170" stroke="black" stroke-width="2"/>
  <text x="370" y="220" font-family="Arial, sans-serif" font-size="10" text-anchor="middle">x2</text>
  
  <!-- Output wire -->
  <line x1="470" y1="160" x2="490" y2="160" stroke="black" stroke-width="2"/>
  <text x="485" y="150" font-family="Arial, sans-serif" font-size="12" text-anchor="middle">out</text>
  
  <!-- Description -->
  <text x="250" y="310" font-family="Arial, sans-serif" font-size="14" text-anchor="middle">Or8Way outputs 1 if any of the 8 inputs is 1, otherwise outputs 0</text>
  <text x="250" y="330" font-family="Arial, sans-serif" font-size="14" text-anchor="middle">Implementation uses a tree of OR gates to combine all inputs</text>
</svg>